# xmcd
#
# Track frame offsets: 
#        150
#        15000
#        31442
#        39137
#        48894
#        61965
#        73862
#        84270
#        96530
#        106812
#        125865
#        134742
#        147362
#        159428
#        171676
#        187118
#        199878
#        212521
#        228130
#        243073
#        257781
#        272301
#        294888
#        305798
#        325856
#
# Disc length: 4661 seconds
#
# Revision: 2
# Processed by: cddbd v1.5.2PL0 Copyright (c) Steve Scherf et al.
# Submitted via: ExactAudioCopyFreeDBPlugin 1.0
#
DISCID=65123319
DTITLE=Donovan - Breezes Of Patchouli [Disc 2]
DYEAR=2013
DGENRE=Folk-Rock
TTITLE0=Hurdy Gurdy Man
TTITLE1=Peregrine
TTITLE2=The Entertaining Of A Shy Girl
TTITLE3=As I Recall It
TTITLE4=Get Thy Bearings
TTITLE5=Hi It's Been A Long Time
TTITLE6=West Indian Lady
TTITLE7=Jennifer Juniper
TTITLE8=The River Song
TTITLE9=Tangier
TTITLE10=A Sunny Day
TTITLE11=The Sun Is A Very Magic Fellow
TTITLE12=Teas
TTITLE13=Jennifer Juniper [Italian Version]
TTITLE14=Barabajagal (Love Is Hot) [feat. The Jeff Beck Group]
TTITLE15=Superlungs My Supergirl
TTITLE16=Where Is She
TTITLE17=Happiness Runs
TTITLE18=I Love My Shirt
TTITLE19=The Love Song
TTITLE20=To Susan On The West Coast Waiting
TTITLE21=Atlantis
TTITLE22=Trudi
TTITLE23=Pamela Jo
TTITLE24=A Poor Man's Sunshine (Nativity)
EXTD=
EXTT0=
EXTT1=
EXTT2=
EXTT3=
EXTT4=
EXTT5=
EXTT6=
EXTT7=
EXTT8=
EXTT9=
EXTT10=
EXTT11=
EXTT12=
EXTT13=
EXTT14=
EXTT15=
EXTT16=
EXTT17=
EXTT18=
EXTT19=
EXTT20=
EXTT21=
EXTT22=
EXTT23=
EXTT24=
PLAYORDER=
